<?xml version="1.0" standalone="no"?>
<!DOCTYPE svg PUBLIC "-//W3C//DTD SVG 20010904//EN"
 "http://www.w3.org/TR/2001/REC-SVG-20010904/DTD/svg10.dtd">
<svg version="1.0" xmlns="http://www.w3.org/2000/svg"
 width="1024.000000pt" height="1024.000000pt" viewBox="0 0 1024.000000 1024.000000"
 preserveAspectRatio="xMidYMid meet">
<metadata>
Created by potrace 1.14, written by Peter Selinger 2001-2017
</metadata>
<g transform="translate(0.000000,1024.000000) scale(0.100000,-0.100000)"
fill="#000000" stroke="none">
<path d="M5069 8190 c-117 -20 -72 22 -1250 -1158 -1063 -1063 -1108 -1109
-1130 -1167 -17 -45 -23 -82 -23 -145 -1 -75 3 -93 30 -151 26 -55 54 -88 170
-201 322 -312 344 -329 461 -348 74 -12 169 2 237 36 40 21 213 188 814 787
l762 762 768 -767 c511 -510 781 -773 808 -787 59 -29 157 -43 227 -31 116 19
139 36 443 330 78 75 153 154 167 177 72 114 74 268 4 386 -14 23 -520 535
-1124 1138 -1032 1031 -1101 1098 -1153 1117 -67 24 -150 33 -211 22z"/>
<path d="M5069 5220 c-117 -20 -72 22 -1250 -1158 -1063 -1063 -1108 -1109
-1130 -1167 -17 -45 -23 -82 -23 -145 -1 -75 3 -93 30 -151 26 -55 54 -88 170
-201 322 -312 344 -329 461 -348 74 -12 169 2 237 36 40 21 213 188 814 787
l762 762 768 -767 c511 -510 781 -773 808 -787 59 -29 157 -43 227 -31 116 19
139 36 443 330 78 75 153 154 167 177 72 114 74 268 4 386 -14 23 -520 535
-1124 1138 -1032 1031 -1101 1098 -1153 1117 -67 24 -150 33 -211 22z"/>
</g>
</svg>
