<?xml version="1.0" encoding="UTF-8"?>
<svg width="9px" height="9px" viewBox="0 0 9 9" version="1.1" xmlns="http://www.w3.org/2000/svg" xmlns:xlink="http://www.w3.org/1999/xlink">
    <!-- Generator: Sketch 49.3 (51167) - http://www.bohemiancoding.com/sketch -->
    <title>LINKEDIN</title>
    <desc>Created with Sketch.</desc>
    <defs></defs>
    <g id="Page-1" stroke="none" stroke-width="1" fill="none" fill-rule="evenodd">
        <g id="Group-8" transform="translate(-538.000000, -15.000000)" fill="#FFFFFF">
            <g id="Group" transform="translate(538.000000, 15.000000)">
                <path d="M8.33432055,0 L0.663948613,0 C0.297703758,0 0,0.290423077 0,0.649038462 L0,8.35061538 C0,8.70888462 0.297703758,9 0.663948613,9 L8.33432055,9 C8.70125774,9 9,8.70888462 9,8.35061538 L9,0.649038462 C9,0.290423077 8.70125774,0 8.33432055,0 L8.33432055,0 Z M1.38466864,3.46153846 L2.76933728,3.46153846 L2.76933728,7.61538462 L1.38466864,7.61538462 L1.38466864,3.46153846 Z M2.07734913,2.90769231 C1.61729297,2.90769231 1.24620178,2.53557692 1.24620178,2.07692308 C1.24620178,1.61826923 1.61729297,1.24615385 2.07734913,1.24615385 C2.53567445,1.24615385 2.90780415,1.61826923 2.90780415,2.07692308 C2.90780415,2.53557692 2.53567445,2.90769231 2.07734913,2.90769231 L2.07734913,2.90769231 Z M7.61567753,7.61538462 L6.23100888,7.61538462 L6.23100888,5.53846154 C6.23100888,4.97596154 6.07938767,4.4415 5.53867456,4.4415 C4.99761529,4.4415 4.84634024,4.98426923 4.84634024,5.54469231 L4.84634024,7.61538462 L3.4616716,7.61538462 L3.4616716,3.46153846 L4.84634024,3.46153846 L4.84634024,3.96103846 L4.91557368,3.96103846 C5.0935036,3.62353846 5.53867456,3.33657692 6.06796415,3.33657692 C7.34532097,3.33657692 7.61567753,4.17565385 7.61567753,5.19230769 L7.61567753,7.61538462 L7.61567753,7.61538462 Z" id="LINKEDIN"></path>
            </g>
        </g>
    </g>
</svg>