<?xml version="1.0" encoding="UTF-8"?>
<svg width="9px" height="9px" viewBox="0 0 9 9" version="1.1" xmlns="http://www.w3.org/2000/svg" xmlns:xlink="http://www.w3.org/1999/xlink">
    <!-- Generator: Sketch 49.3 (51167) - http://www.bohemiancoding.com/sketch -->
    <title>Fill 123</title>
    <desc>Created with Sketch.</desc>
    <defs></defs>
    <g id="Page-1" stroke="none" stroke-width="1" fill="none" fill-rule="evenodd">
        <g id="Group-8" transform="translate(-554.000000, -15.000000)" fill="#FFFFFF">
            <g id="Group" transform="translate(538.000000, 15.000000)">
                <path d="M20.4997,0 C18.0148,0 16,2.06580063 16,4.6142161 C16,6.65264088 17.2894,8.38193378 19.0777,8.99189249 C19.3027,9.03434045 19.3846,8.89192447 19.3846,8.7695021 C19.3846,8.65999867 19.381,8.36993762 19.3786,7.98483006 C18.127,8.26381773 17.8627,7.36625872 17.8627,7.36625872 C17.6581,6.83350609 17.3632,6.69139771 17.3632,6.69139771 C16.9546,6.40533538 17.3941,6.41087207 17.3941,6.41087207 C17.8456,6.44347702 18.0835,6.88641224 18.0835,6.88641224 C18.4849,7.59172505 19.1365,7.38809789 19.393,7.26998183 C19.4338,6.97161575 19.5502,6.76829618 19.6786,6.65294847 C18.6793,6.53667798 17.629,6.14080463 17.629,4.37275489 C17.629,3.86891608 17.8042,3.45704785 18.0922,3.13468944 C18.0457,3.01780376 17.8915,2.54872306 18.1363,1.91354165 C18.1363,1.91354165 18.514,1.78958131 19.3738,2.38662107 C19.7326,2.2841923 20.1175,2.23313172 20.5003,2.23128615 C20.8825,2.23313172 21.2674,2.2841923 21.6268,2.38662107 C22.486,1.78958131 22.8631,1.91354165 22.8631,1.91354165 C23.1085,2.54872306 22.954,3.01780376 22.9078,3.13468944 C23.1964,3.45704785 23.3704,3.86891608 23.3704,4.37275489 C23.3704,6.14511094 22.3183,6.53514001 21.3157,6.64956494 C21.4774,6.79198091 21.6214,7.07342933 21.6214,7.5037532 C21.6214,8.12078656 21.6157,8.61847349 21.6157,8.7695021 C21.6157,8.89284725 21.697,9.0364936 21.9253,8.99158489 C23.7118,8.38008822 25,6.65202569 25,4.6142161 C25,2.06580063 22.9849,0 20.4997,0" id="Fill-123"></path>
            </g>
        </g>
    </g>
</svg>